<mxfile host="65bd71144e">
    <diagram id="k7O2KsP_zanzu7LOHq0x" name="Page-1">
        <mxGraphModel dx="1525" dy="1698" grid="1" gridSize="10" guides="1" tooltips="1" connect="1" arrows="1" fold="1" page="1" pageScale="1" pageWidth="1654" pageHeight="2336" math="0" shadow="0">
            <root>
                <mxCell id="0"/>
                <mxCell id="1" parent="0"/>
                <mxCell id="zymx6RRckQisvvsk5jor-3" style="edgeStyle=orthogonalEdgeStyle;rounded=0;orthogonalLoop=1;jettySize=auto;html=1;entryX=0.5;entryY=0;entryDx=0;entryDy=0;exitX=1;exitY=0.5;exitDx=0;exitDy=0;" parent="1" source="zymx6RRckQisvvsk5jor-1" target="zymx6RRckQisvvsk5jor-2" edge="1">
                    <mxGeometry relative="1" as="geometry">
                        <mxPoint x="880" y="120" as="sourcePoint"/>
                    </mxGeometry>
                </mxCell>
                <mxCell id="zymx6RRckQisvvsk5jor-14" style="edgeStyle=orthogonalEdgeStyle;rounded=0;orthogonalLoop=1;jettySize=auto;html=1;entryX=0.5;entryY=0;entryDx=0;entryDy=0;exitX=0;exitY=0.5;exitDx=0;exitDy=0;" parent="1" source="zymx6RRckQisvvsk5jor-1" target="zymx6RRckQisvvsk5jor-13" edge="1">
                    <mxGeometry relative="1" as="geometry">
                        <mxPoint x="550" y="120" as="sourcePoint"/>
                    </mxGeometry>
                </mxCell>
                <mxCell id="zymx6RRckQisvvsk5jor-1" value="S-выражение - атом" style="shape=rhombus;html=1;dashed=0;whitespace=wrap;perimeter=rhombusPerimeter;" parent="1" vertex="1">
                    <mxGeometry x="610" y="80" width="220" height="80" as="geometry"/>
                </mxCell>
                <mxCell id="zymx6RRckQisvvsk5jor-5" style="edgeStyle=orthogonalEdgeStyle;rounded=0;orthogonalLoop=1;jettySize=auto;html=1;entryX=0.5;entryY=0;entryDx=0;entryDy=0;" parent="1" source="zymx6RRckQisvvsk5jor-2" target="zymx6RRckQisvvsk5jor-4" edge="1">
                    <mxGeometry relative="1" as="geometry"/>
                </mxCell>
                <mxCell id="zymx6RRckQisvvsk5jor-7" style="edgeStyle=orthogonalEdgeStyle;rounded=0;orthogonalLoop=1;jettySize=auto;html=1;entryX=0.5;entryY=0;entryDx=0;entryDy=0;" parent="1" source="zymx6RRckQisvvsk5jor-2" target="zymx6RRckQisvvsk5jor-6" edge="1">
                    <mxGeometry relative="1" as="geometry">
                        <Array as="points">
                            <mxPoint x="890" y="240"/>
                            <mxPoint x="890" y="360"/>
                            <mxPoint x="1010" y="360"/>
                        </Array>
                    </mxGeometry>
                </mxCell>
                <mxCell id="zymx6RRckQisvvsk5jor-2" value="S-выражение = T" style="shape=rhombus;html=1;dashed=0;whitespace=wrap;perimeter=rhombusPerimeter;" parent="1" vertex="1">
                    <mxGeometry x="900" y="200" width="220" height="80" as="geometry"/>
                </mxCell>
                <mxCell id="zymx6RRckQisvvsk5jor-4" value="T" style="rounded=0;whiteSpace=wrap;html=1;" parent="1" vertex="1">
                    <mxGeometry x="1130" y="280" width="220" height="80" as="geometry"/>
                </mxCell>
                <mxCell id="zymx6RRckQisvvsk5jor-10" style="edgeStyle=orthogonalEdgeStyle;rounded=0;orthogonalLoop=1;jettySize=auto;html=1;entryX=0.5;entryY=0;entryDx=0;entryDy=0;" parent="1" source="zymx6RRckQisvvsk5jor-6" target="zymx6RRckQisvvsk5jor-9" edge="1">
                    <mxGeometry relative="1" as="geometry"/>
                </mxCell>
                <mxCell id="zymx6RRckQisvvsk5jor-12" style="edgeStyle=orthogonalEdgeStyle;rounded=0;orthogonalLoop=1;jettySize=auto;html=1;" parent="1" source="zymx6RRckQisvvsk5jor-6" target="zymx6RRckQisvvsk5jor-11" edge="1">
                    <mxGeometry relative="1" as="geometry">
                        <Array as="points">
                            <mxPoint x="890" y="440"/>
                            <mxPoint x="890" y="560"/>
                            <mxPoint x="1010" y="560"/>
                        </Array>
                    </mxGeometry>
                </mxCell>
                <mxCell id="zymx6RRckQisvvsk5jor-6" value="S-выражение = Nil" style="shape=rhombus;html=1;dashed=0;whitespace=wrap;perimeter=rhombusPerimeter;" parent="1" vertex="1">
                    <mxGeometry x="900" y="400" width="220" height="80" as="geometry"/>
                </mxCell>
                <mxCell id="zymx6RRckQisvvsk5jor-8" value="Да" style="text;html=1;align=center;verticalAlign=middle;resizable=0;points=[];autosize=1;strokeColor=none;fillColor=none;" parent="1" vertex="1">
                    <mxGeometry x="1115" y="210" width="30" height="20" as="geometry"/>
                </mxCell>
                <mxCell id="zymx6RRckQisvvsk5jor-9" value="Nil" style="rounded=0;whiteSpace=wrap;html=1;" parent="1" vertex="1">
                    <mxGeometry x="1130" y="480" width="220" height="80" as="geometry"/>
                </mxCell>
                <mxCell id="zymx6RRckQisvvsk5jor-11" value="Значение S-выражения, если оно есть" style="rounded=0;whiteSpace=wrap;html=1;" parent="1" vertex="1">
                    <mxGeometry x="900" y="600" width="220" height="80" as="geometry"/>
                </mxCell>
                <mxCell id="zymx6RRckQisvvsk5jor-16" style="edgeStyle=orthogonalEdgeStyle;rounded=0;orthogonalLoop=1;jettySize=auto;html=1;entryX=0.5;entryY=0;entryDx=0;entryDy=0;" parent="1" source="zymx6RRckQisvvsk5jor-13" target="zymx6RRckQisvvsk5jor-15" edge="1">
                    <mxGeometry relative="1" as="geometry"/>
                </mxCell>
                <mxCell id="zymx6RRckQisvvsk5jor-21" style="edgeStyle=orthogonalEdgeStyle;rounded=0;orthogonalLoop=1;jettySize=auto;html=1;entryX=0.5;entryY=0;entryDx=0;entryDy=0;" parent="1" source="zymx6RRckQisvvsk5jor-13" target="zymx6RRckQisvvsk5jor-20" edge="1">
                    <mxGeometry relative="1" as="geometry">
                        <Array as="points">
                            <mxPoint x="580" y="240"/>
                        </Array>
                    </mxGeometry>
                </mxCell>
                <mxCell id="zymx6RRckQisvvsk5jor-13" value="1-ый элемент S-выражения&lt;br&gt;является quote" style="shape=rhombus;html=1;dashed=0;whitespace=wrap;perimeter=rhombusPerimeter;" parent="1" vertex="1">
                    <mxGeometry x="310" y="200" width="220" height="80" as="geometry"/>
                </mxCell>
                <mxCell id="zymx6RRckQisvvsk5jor-15" value="S-выражение" style="rounded=0;whiteSpace=wrap;html=1;" parent="1" vertex="1">
                    <mxGeometry x="80" y="280" width="220" height="80" as="geometry"/>
                </mxCell>
                <mxCell id="zymx6RRckQisvvsk5jor-17" value="Да" style="text;html=1;align=center;verticalAlign=middle;resizable=0;points=[];autosize=1;strokeColor=none;fillColor=none;" parent="1" vertex="1">
                    <mxGeometry x="245" y="210" width="30" height="20" as="geometry"/>
                </mxCell>
                <mxCell id="zymx6RRckQisvvsk5jor-18" value="Да" style="text;html=1;align=center;verticalAlign=middle;resizable=0;points=[];autosize=1;strokeColor=none;fillColor=none;" parent="1" vertex="1">
                    <mxGeometry x="1115" y="410" width="30" height="20" as="geometry"/>
                </mxCell>
                <mxCell id="zymx6RRckQisvvsk5jor-19" value="Да" style="text;html=1;align=center;verticalAlign=middle;resizable=0;points=[];autosize=1;strokeColor=none;fillColor=none;" parent="1" vertex="1">
                    <mxGeometry x="860" y="90" width="30" height="20" as="geometry"/>
                </mxCell>
                <mxCell id="zymx6RRckQisvvsk5jor-23" style="edgeStyle=orthogonalEdgeStyle;rounded=0;orthogonalLoop=1;jettySize=auto;html=1;" parent="1" source="zymx6RRckQisvvsk5jor-20" target="zymx6RRckQisvvsk5jor-22" edge="1">
                    <mxGeometry relative="1" as="geometry">
                        <Array as="points">
                            <mxPoint x="730" y="320"/>
                        </Array>
                    </mxGeometry>
                </mxCell>
                <mxCell id="zymx6RRckQisvvsk5jor-26" style="edgeStyle=orthogonalEdgeStyle;rounded=0;orthogonalLoop=1;jettySize=auto;html=1;entryX=0.5;entryY=0;entryDx=0;entryDy=0;" parent="1" source="zymx6RRckQisvvsk5jor-20" target="zymx6RRckQisvvsk5jor-25" edge="1">
                    <mxGeometry relative="1" as="geometry">
                        <Array as="points">
                            <mxPoint x="430" y="320"/>
                        </Array>
                    </mxGeometry>
                </mxCell>
                <mxCell id="zymx6RRckQisvvsk5jor-20" value="1-ый элемент требует &lt;br&gt;специальной обработки" style="shape=rhombus;html=1;dashed=0;whitespace=wrap;perimeter=rhombusPerimeter;" parent="1" vertex="1">
                    <mxGeometry x="470" y="280" width="220" height="80" as="geometry"/>
                </mxCell>
                <mxCell id="zymx6RRckQisvvsk5jor-29" style="edgeStyle=orthogonalEdgeStyle;rounded=0;orthogonalLoop=1;jettySize=auto;html=1;endArrow=none;endFill=0;" parent="1" source="zymx6RRckQisvvsk5jor-22" edge="1">
                    <mxGeometry relative="1" as="geometry">
                        <mxPoint x="430" y="560" as="targetPoint"/>
                        <Array as="points">
                            <mxPoint x="730" y="560"/>
                        </Array>
                    </mxGeometry>
                </mxCell>
                <mxCell id="zymx6RRckQisvvsk5jor-22" value="Выполняется специальная обработка" style="rounded=0;whiteSpace=wrap;html=1;" parent="1" vertex="1">
                    <mxGeometry x="620" y="400" width="220" height="80" as="geometry"/>
                </mxCell>
                <mxCell id="zymx6RRckQisvvsk5jor-24" value="Да" style="text;html=1;align=center;verticalAlign=middle;resizable=0;points=[];autosize=1;strokeColor=none;fillColor=none;" parent="1" vertex="1">
                    <mxGeometry x="700" y="290" width="30" height="20" as="geometry"/>
                </mxCell>
                <mxCell id="zymx6RRckQisvvsk5jor-28" style="edgeStyle=orthogonalEdgeStyle;rounded=0;orthogonalLoop=1;jettySize=auto;html=1;entryX=0.5;entryY=0;entryDx=0;entryDy=0;" parent="1" source="zymx6RRckQisvvsk5jor-25" target="zymx6RRckQisvvsk5jor-27" edge="1">
                    <mxGeometry relative="1" as="geometry"/>
                </mxCell>
                <mxCell id="zymx6RRckQisvvsk5jor-25" value="Применяется eval ко всем аргументам" style="rounded=0;whiteSpace=wrap;html=1;" parent="1" vertex="1">
                    <mxGeometry x="320" y="400" width="220" height="80" as="geometry"/>
                </mxCell>
                <mxCell id="zymx6RRckQisvvsk5jor-27" value="Применяется 1-ый элемент к аргументам" style="rounded=0;whiteSpace=wrap;html=1;" parent="1" vertex="1">
                    <mxGeometry x="320" y="600" width="220" height="80" as="geometry"/>
                </mxCell>
            </root>
        </mxGraphModel>
    </diagram>
</mxfile>